<?xml version="1.0" encoding="UTF-8"?>
<svg width="800" height="450" version="1.1" viewBox="0 0 800 450" xmlns="http://www.w3.org/2000/svg">
 <defs>
   <linearGradient id="grad" x1="0%" y1="0%" x2="100%" y2="100%">
     <stop offset="0%" style="stop-color:#1e40af;stop-opacity:0.1"/>
     <stop offset="100%" style="stop-color:#3b82f6;stop-opacity:0.1"/>
   </linearGradient>
 </defs>
 <rect width="800" height="450" fill="url(#grad)"/>
 <g transform="translate(300,150)" fill="#3b82f6">
   <path d="M100,0 A100,100 0 1,1 86.6,-50 L0,0 Z" opacity="0.2"/>
   <path d="M86.6,-50 A100,100 0 0,1 86.6,50 L0,0 Z" opacity="0.4"/>
   <path d="M86.6,50 A100,100 0 0,1 0,100 L0,0 Z" opacity="0.3"/>
   <circle cx="0" cy="0" r="30" opacity="0.6"/>
 </g>
 <g transform="translate(200,225)" fill="#1e40af" opacity="0.15">
   <rect x="-20" y="-20" width="40" height="40" transform="rotate(45)"/>
   <rect x="60" y="-20" width="40" height="40" transform="rotate(45)"/>
   <rect x="140" y="-20" width="40" height="40" transform="rotate(45)"/>
 </g>
</svg>
